<svg width="30" height="27" viewBox="0 0 30 27" fill="none" xmlns="http://www.w3.org/2000/svg">
<path d="M15.0524 26.0258H2.15348C1.86667 26.043 1.57946 25.9992 1.31081 25.8973C1.04217 25.7953 0.798211 25.6376 0.595036 25.4344C0.391861 25.2312 0.234095 24.9873 0.132155 24.7186C0.0302153 24.45 -0.0135801 24.1628 0.00366067 23.8759V10.977C-0.0135801 10.6902 0.0302153 10.403 0.132155 10.1344C0.234095 9.86572 0.391861 9.62176 0.595036 9.41858C0.798211 9.21541 1.04217 9.05764 1.31081 8.9557C1.57946 8.85376 1.86667 8.80997 2.15348 8.82721H15.0524C15.3392 8.80997 15.6264 8.85376 15.8951 8.9557C16.1637 9.05764 16.4077 9.21541 16.6108 9.41858C16.814 9.62176 16.9718 9.86572 17.0737 10.1344C17.1757 10.403 17.2195 10.6902 17.2022 10.977V23.8759C17.2195 24.1628 17.1757 24.45 17.0737 24.7186C16.9718 24.9873 16.814 25.2312 16.6108 25.4344C16.4077 25.6376 16.1637 25.7953 15.8951 25.8973C15.6264 25.9992 15.3392 26.043 15.0524 26.0258ZM2.15348 10.977V23.8759H15.0524V10.977H2.15348Z" fill="#B4B2AF"/>
<path d="M21.6139 16.3236H19.4086V6.58066H8.38232V4.41555H19.4086C19.7028 4.39819 19.9974 4.4423 20.273 4.54496C20.5486 4.64763 20.7988 4.80651 21.0072 5.01113C21.2157 5.21575 21.3775 5.46145 21.4821 5.732C21.5866 6.00255 21.6315 6.2918 21.6139 6.58066V16.3236Z" fill="#B4B2AF"/>
<path d="M25.5846 10.5882H23.4677V2.12053H15V0.00360464H23.4677C23.7501 -0.0133723 24.0329 0.0297532 24.2975 0.130134C24.562 0.230514 24.8022 0.385866 25.0023 0.585932C25.2024 0.785998 25.3577 1.02623 25.4581 1.29076C25.5585 1.55529 25.6016 1.8381 25.5846 2.12053V10.5882Z" fill="#B4B2AF"/>
<path d="M23.6472 14.1177V16.2835H26.6119L21.5295 22.131V19.5321H19.4119V26.0294H25.7648V23.8637H22.8001L27.8825 18.0161V20.615H30.0001V14.1177H23.6472Z" fill="#B4B2AF"/>
</svg>
